# xmcd
#
# Track frame offsets:
#	150
#	17094
#	31349
#	47429
#	63388
#	76944
#	92874
#	108863
#	124093
#	140404
#	157645
#	173511
#	190082
#	204972
#	221955
#	236193
#	253457
#	266506
#	285775
#	302871
#	319029
#
# Disc length: 4502 seconds
#
# Revision: 1
# Processed by: cddbd v1.4PL0 Copyright (c) Steve Scherf et al.
# Submitted via: audiograbber 1.80
#
DISCID=1b119415
DTITLE=Various Artist - Hott Country 054
DYEAR=1900
DGENRE=
TTITLE0=Wyonna - Without Your Love.. I'm Going Nowhere
TTITLE1=Trisha Yearwood - Where Are You Now
TTITLE2=Farmeer's Daughter - You And Only You
TTITLE3=Allison Paige - The End Of The World
TTITLE4=Jessica Andrews - I Do Now
TTITLE5=Danni Leigh - I Don't Feel That Way Anymore
TTITLE6=John Anderson - You Ain't Hurt Nothing Yet
TTITLE7=Craig Morgan - Something To Write Home About
TTITLE8=Toby Keith - Country Comes To Town
TTITLE9=Lace - True Love ( Never Goes Out Of Style )
TTITLE10=Patty Loveless - That's the Kind Of Mood I'm In
TTITLE11=Collin Raye/Bobbie Eakes - Tired Of Loving You This Way
TTITLE12=Wade Hayes - Goodbye Is The Wrong Way To Go
TTITLE13=Wilkinsons - Shame On Me
TTITLE14=Tracy Lawrence - Lonely
TTITLE15=Tim Rushlow - When You Love Me
TTITLE16=Aaron Tippin - Kiss This
TTITLE17=Lonestar - Love Can Change Your Mind
TTITLE18=Allison Moorer - Send Down An Angel
TTITLE19=Darryl Worley - When You Need My Love
TTITLE20=Billy Gilman - One Voice
EXTD=
EXTT0=
EXTT1=
EXTT2=
EXTT3=
EXTT4=
EXTT5=
EXTT6=
EXTT7=
EXTT8=
EXTT9=
EXTT10=
EXTT11=
EXTT12=
EXTT13=
EXTT14=
EXTT15=
EXTT16=
EXTT17=
EXTT18=
EXTT19=
EXTT20=
PLAYORDER=
